<svg xmlns="http://www.w3.org/2000/svg" viewBox="0 0 512 512" role="img" aria-label="Web{X} Studio">
  <defs>
    <linearGradient id="bg" x1="0" y1="0" x2="1" y2="1">
      <stop offset="0" stop-color="#16111f"/>
      <stop offset="1" stop-color="#0A0A0A"/>
    </linearGradient>
    <radialGradient id="glow" cx="0.5" cy="0.42" r="0.62">
      <stop offset="0" stop-color="#9D5CFF" stop-opacity="0.38"/>
      <stop offset="1" stop-color="#9D5CFF" stop-opacity="0"/>
    </radialGradient>
  </defs>
  <rect width="512" height="512" rx="115" fill="url(#bg)"/>
  <rect width="512" height="512" rx="115" fill="url(#glow)"/>
  <g transform="scale(5.12)" fill="none" stroke-linecap="round" stroke-linejoin="round">
    <path d="M37 30 c-7 0 -10 3 -10 9 v5 c0 5 -3 7 -6 7 c3 0 6 2 6 7 v5 c0 6 3 9 10 9" stroke="#EDEDED" stroke-width="6"/>
    <path d="M63 30 c7 0 10 3 10 9 v5 c0 5 3 7 6 7 c-3 0 -6 2 -6 7 v5 c0 6 -3 9 -10 9" stroke="#EDEDED" stroke-width="6"/>
    <path d="M42 39 L58 61 M58 39 L42 61" stroke="#9D5CFF" stroke-width="9"/>
  </g>
</svg>
